# xmcd
#
# Track frame offsets:
#	150
#	4386
#	21714
#	37354
#	55040
#	71901
#	91315
#	107966
#	122763
#	138265
#	160814
#	174953
#	200305
#
# Disc length: 2880 seconds
# Revision: 0
# Processed by: cddbd v1.5.2PL0 Copyright (c) Steve Scherf et al.
# Submitted via: dBpowerAMP V12.0
#
DISCID=ba0b3e0d
DTITLE=Sterling Koch - Let It Slide
DYEAR=2013
DGENRE=Blues
TTITLE0=Shape I'm In
TTITLE1=Shape I'm In
TTITLE2=Wrong Side Of The Blues
TTITLE3=Mercury Blues
TTITLE4=Blow My Mind
TTITLE5=It Hurts Me Too
TTITLE6=Too Sorry
TTITLE7=I Dont Know Why
TTITLE8=Lonely Avenue
TTITLE9=My Baby's Hot
TTITLE10=I Wanna Be Your Driver
TTITLE11=I Only Wanna Be With You
TTITLE12=Working Mans Blues Remix B(M)
EXTD=
EXTT0=
EXTT1=
EXTT2=
EXTT3=
EXTT4=
EXTT5=
EXTT6=
EXTT7=
EXTT8=
EXTT9=
EXTT10=
EXTT11=
EXTT12=
PLAYORDER=
